<mxfile host="app.diagrams.net" agent="Mozilla/5.0 (Macintosh; Intel Mac OS X 10_15_7) AppleWebKit/537.36 (KHTML, like Gecko) Chrome/130.0.0.0 Safari/537.36" version="24.9.0">
  <diagram name="Page-1" id="91VJMK0D8J6BTs3W6VqV">
    <mxGraphModel grid="1" page="1" gridSize="10" guides="1" tooltips="1" connect="1" arrows="1" fold="1" pageScale="1" pageWidth="1169" pageHeight="827" math="0" shadow="0">
      <root>
        <mxCell id="0" />
        <mxCell id="1" parent="0" />
        <mxCell id="k6EADRTYt32Taa938Ug7-4" value="" style="edgeStyle=orthogonalEdgeStyle;rounded=0;orthogonalLoop=1;jettySize=auto;html=1;startArrow=classic;startFill=1;" edge="1" parent="1" source="k6EADRTYt32Taa938Ug7-7" target="k6EADRTYt32Taa938Ug7-8">
          <mxGeometry relative="1" as="geometry" />
        </mxCell>
        <mxCell id="k6EADRTYt32Taa938Ug7-5" value="" style="edgeStyle=orthogonalEdgeStyle;rounded=0;orthogonalLoop=1;jettySize=auto;html=1;" edge="1" parent="1" source="k6EADRTYt32Taa938Ug7-7" target="k6EADRTYt32Taa938Ug7-25">
          <mxGeometry relative="1" as="geometry" />
        </mxCell>
        <mxCell id="k6EADRTYt32Taa938Ug7-6" style="edgeStyle=orthogonalEdgeStyle;rounded=0;orthogonalLoop=1;jettySize=auto;html=1;" edge="1" parent="1" source="k6EADRTYt32Taa938Ug7-7" target="k6EADRTYt32Taa938Ug7-26">
          <mxGeometry relative="1" as="geometry" />
        </mxCell>
        <mxCell id="k6EADRTYt32Taa938Ug7-7" value="Quiz controller&lt;br&gt;(stateful)" style="rounded=1;whiteSpace=wrap;html=1;" vertex="1" parent="1">
          <mxGeometry x="480" y="480" width="120" height="60" as="geometry" />
        </mxCell>
        <mxCell id="k6EADRTYt32Taa938Ug7-8" value="Event broker" style="shape=cylinder3;whiteSpace=wrap;html=1;boundedLbl=1;backgroundOutline=1;size=15;" vertex="1" parent="1">
          <mxGeometry x="510" y="590" width="60" height="80" as="geometry" />
        </mxCell>
        <mxCell id="k6EADRTYt32Taa938Ug7-13" value="enter user ID" style="edgeStyle=orthogonalEdgeStyle;rounded=0;orthogonalLoop=1;jettySize=auto;html=1;" edge="1" parent="1" source="k6EADRTYt32Taa938Ug7-14" target="k6EADRTYt32Taa938Ug7-20">
          <mxGeometry relative="1" as="geometry" />
        </mxCell>
        <mxCell id="k6EADRTYt32Taa938Ug7-14" value="Quiz participant" style="shape=umlActor;verticalLabelPosition=top;verticalAlign=bottom;html=1;outlineConnect=0;labelPosition=center;align=center;" vertex="1" parent="1">
          <mxGeometry x="525" y="130" width="30" height="60" as="geometry" />
        </mxCell>
        <mxCell id="k6EADRTYt32Taa938Ug7-20" value="Command-line client" style="rounded=1;whiteSpace=wrap;html=1;" vertex="1" parent="1">
          <mxGeometry x="480" y="280" width="120" height="60" as="geometry" />
        </mxCell>
        <mxCell id="k6EADRTYt32Taa938Ug7-22" value="&lt;span style=&quot;orphans: 2; text-align: center; text-indent: 0px; widows: 2; background-color: rgb(255, 255, 255); text-decoration-thickness: initial; text-decoration-style: initial; text-decoration-color: initial; float: none; display: inline !important;&quot;&gt;(clients specify port to&lt;br&gt;connect to different instances)&lt;br&gt;&lt;/span&gt;" style="edgeStyle=orthogonalEdgeStyle;rounded=0;orthogonalLoop=1;jettySize=auto;html=1;startArrow=classic;startFill=1;" edge="1" parent="1" source="k6EADRTYt32Taa938Ug7-20" target="k6EADRTYt32Taa938Ug7-7">
          <mxGeometry relative="1" as="geometry">
            <Array as="points">
              <mxPoint x="540" y="400" />
              <mxPoint x="540" y="400" />
            </Array>
            <mxPoint x="720" y="280" as="sourcePoint" />
          </mxGeometry>
        </mxCell>
        <mxCell id="k6EADRTYt32Taa938Ug7-25" value="Quiz data&lt;br&gt;(hardcoded)" style="shape=cylinder3;whiteSpace=wrap;html=1;boundedLbl=1;backgroundOutline=1;size=15;" vertex="1" parent="1">
          <mxGeometry x="370" y="590" width="70" height="80" as="geometry" />
        </mxCell>
        <mxCell id="k6EADRTYt32Taa938Ug7-26" value="Quiz user score" style="shape=cylinder3;whiteSpace=wrap;html=1;boundedLbl=1;backgroundOutline=1;size=15;" vertex="1" parent="1">
          <mxGeometry x="640" y="590" width="70" height="80" as="geometry" />
        </mxCell>
      </root>
    </mxGraphModel>
  </diagram>
</mxfile>
